<svg id="Monogram_logo" data-name="Monogram logo" xmlns="http://www.w3.org/2000/svg" viewBox="0 0 252.41 216.17"><defs><style>.cls-1{fill:#2b467e;stroke:#2b467e;stroke-linecap:round;stroke-linejoin:round;stroke-width:3.13px;}</style></defs><title>WVGC-Logo</title><path class="cls-1" d="M41,56.2V86.84H52.88V25.56S5.4,60.86,6.24,114.82s38.15,79.27,46.64,83.93V137.46H31.15l2.54,8.66h8.17v22.65s-24.59-22.65-21.2-59.95S41,56.2,41,56.2Z" transform="translate(-4.67 -2.01)"/><polygon class="cls-1" points="66.02 14.22 80.43 4.23 80.43 125.46 93.99 50.19 111.8 120.8 111.8 2.9 124.52 14.89 124.52 208.07 112.3 214.44 93.99 109.48 78.74 214.06 66.02 207.4 66.02 14.22"/><path class="cls-1" d="M145.29,12.9l10.65,202s12.58,4.08,22-.18L196.16,13.57l-16.11-10L168.35,186.33,158.86,4.91Z" transform="translate(-4.67 -2.01)"/><path class="cls-1" d="M212.27,25.56V198.75s33.06-20.65,38.15-58.62l-9.33-5.33s-9.32,24-17,34V54.2S242,71.52,242.8,92.83l12.71-7.33S246.19,46.21,212.27,25.56Z" transform="translate(-4.67 -2.01)"/></svg>